<?xml version="1.0" standalone="no"?>
<!DOCTYPE svg PUBLIC "-//W3C//DTD SVG 20010904//EN"
 "http://www.w3.org/TR/2001/REC-SVG-20010904/DTD/svg10.dtd">
<svg version="1.0" xmlns="http://www.w3.org/2000/svg"
 width="260.000000pt" height="260.000000pt" viewBox="0 0 260.000000 260.000000"
 preserveAspectRatio="xMidYMid meet">
<metadata>
Created by potrace 1.11, written by Peter Selinger 2001-2013
</metadata>
<g transform="translate(0.000000,260.000000) scale(0.100000,-0.100000)"
fill="#000000" stroke="none">
<path d="M1060 1844 c8 -8 19 -36 25 -62 7 -26 16 -45 21 -42 5 3 8 10 7 15
-1 6 -5 24 -9 40 -7 32 -31 65 -47 65 -5 0 -4 -7 3 -16z"/>
<path d="M945 1816 c-39 -18 -84 -35 -100 -39 -17 -3 -93 -20 -170 -37 -77
-16 -150 -30 -162 -30 -44 0 -61 -31 -67 -127 -7 -87 -19 -151 -37 -185 -15
-30 -9 -44 9 -21 l17 22 95 -31 c82 -27 110 -31 210 -32 109 -1 118 1 181 30
l65 31 26 -22 c18 -16 45 -24 93 -29 81 -8 93 -14 168 -78 32 -28 79 -58 105
-68 47 -18 64 -36 40 -45 -7 -2 -128 -21 -268 -41 -185 -26 -264 -34 -289 -28
-50 13 -72 49 -78 128 -3 36 -8 66 -11 66 -4 0 -23 -16 -43 -36 l-37 -36 -124
42 c-67 23 -134 49 -147 57 -16 10 -26 12 -34 4 -6 -6 -12 -107 -15 -270 l-5
-259 24 -13 c29 -16 893 -34 1195 -24 189 5 410 27 469 45 17 5 53 17 82 25
57 18 106 65 96 91 -5 13 -8 13 -22 1 -30 -25 -184 -70 -353 -103 -164 -31
-1331 -29 -1443 4 -29 8 -30 9 -31 82 l0 73 140 -6 c78 -3 209 -11 293 -17
128 -10 155 -9 180 3 15 8 102 38 193 66 91 29 176 56 189 62 45 19 40 -8 -20
-101 -22 -34 -38 -65 -35 -67 3 -3 117 -6 253 -6 289 -1 490 18 571 53 49 21
64 41 42 55 -5 3 -10 15 -10 25 0 10 -12 28 -27 40 -24 19 -29 20 -39 6 -9
-13 -38 -16 -174 -16 -161 0 -164 0 -198 -27 -26 -20 -39 -24 -51 -16 -27 17
-24 50 9 108 l32 55 -24 20 c-29 24 -37 25 -31 2 5 -21 -21 -47 -37 -37 -15 9
-12 36 8 58 16 19 16 19 -5 13 -12 -4 -32 -2 -44 5 -20 10 -21 9 -17 -9 7 -27
-6 -46 -27 -38 -13 5 -16 14 -12 34 4 21 1 31 -15 41 -18 11 -20 11 -15 -2 6
-17 -18 -56 -29 -45 -3 4 -7 26 -7 48 0 37 -2 40 -28 40 -22 0 -29 -5 -29 -20
0 -24 -27 -37 -42 -22 -8 8 -8 18 0 37 6 14 7 25 2 25 -4 0 -15 7 -24 15 -13
13 -15 13 -21 -5 -3 -11 -13 -20 -21 -20 -21 0 -29 27 -13 46 11 14 9 19 -11
35 -32 24 -46 24 -53 -1 -6 -24 -25 -26 -34 -4 -4 11 1 22 12 30 17 13 16 14
-12 14 -18 0 -35 5 -38 10 -9 14 -25 12 -25 -3 0 -16 -57 -50 -70 -42 -13 8
26 65 43 65 8 0 11 16 9 50 -2 29 1 57 8 65 12 14 -1 47 -26 70 -7 5 -17 27
-24 48 -6 21 -23 50 -37 65 -21 23 -23 27 -8 30 10 2 14 10 11 19 -3 8 -6 19
-6 24 0 15 -22 10 -95 -25z m179 -204 c13 -21 -34 -47 -65 -37 -22 7 -25 31
-6 38 20 9 65 8 71 -1z"/>
<path d="M1778 1163 c7 -3 16 -2 19 1 4 3 -2 6 -13 5 -11 0 -14 -3 -6 -6z"/>
<path d="M1928 1123 c7 -3 16 -2 19 1 4 3 -2 6 -13 5 -11 0 -14 -3 -6 -6z"/>
</g>
</svg>
